<svg width="320" height="88" viewBox="0 0 320 88" fill="none" xmlns="http://www.w3.org/2000/svg">
  <rect width="320" height="88" rx="18" fill="white"/>
  <path d="M40 33.5H86.3C99.1 33.5 107.7 40.8 107.7 51C107.7 61.2 99.1 68.5 86.3 68.5H40V33.5Z" fill="#163B73"/>
  <path d="M61.5 41.5H83.3C89.5 41.5 93.3 45.1 93.3 50.3C93.3 55.7 89.5 60.5 83.3 60.5H61.5V41.5Z" fill="white"/>
  <path d="M129.7 36.8H151.8C160.1 36.8 164.6 41 164.6 47.1C164.6 51.3 162.2 54.5 157.9 55.7C162.8 56.8 165.8 60 165.8 65C165.8 72 160 76 150.8 76H129.7V36.8ZM145.8 52.3C149.8 52.3 151.7 50.8 151.7 47.9C151.7 45 149.8 43.5 145.8 43.5H141.2V52.3H145.8ZM147 69.2C151.2 69.2 153.3 67.6 153.3 64.2C153.3 60.9 151.2 59.1 147 59.1H141.2V69.2H147Z" fill="#163B73"/>
  <path d="M171 36.8H202.5V43.5H182.5V52.2H200.8V58.8H182.5V69.3H203V76H171V36.8Z" fill="#163B73"/>
  <path d="M207.1 36.8H220.1L228.6 49.8L237.1 36.8H250L235.1 57.1V76H223.6V57.1L207.1 36.8Z" fill="#163B73"/>
  <path d="M256.8 36.8H268.8V76H256.8V36.8Z" fill="#163B73"/>
  <path d="M273.4 36.8H311.5V43.8H298.1V76H286.8V43.8H273.4V36.8Z" fill="#163B73"/>
</svg>
