<svg width="320" height="88" viewBox="0 0 320 88" fill="none" xmlns="http://www.w3.org/2000/svg">
  <rect width="320" height="88" rx="18" fill="white"/>
  <rect x="14" y="18" width="118" height="52" rx="12" fill="#D71920"/>
  <path d="M42 53.5C37.6 53.5 34 49.9 34 45.5C34 41.1 37.6 37.5 42 37.5H57.5V43.2H43.4C41.6 43.2 40.1 43.7 40.1 45.5C40.1 47.3 41.6 47.8 43.4 47.8H57.5V53.5H42Z" fill="white"/>
  <path d="M65 37.5H74.5L83.5 49V37.5H89.7V53.5H80.8L71.1 41.1V53.5H65V37.5Z" fill="white"/>
  <path d="M99.2 53.5C94.8 53.5 91.2 49.9 91.2 45.5C91.2 41.1 94.8 37.5 99.2 37.5H114.7V43.2H100.6C98.8 43.2 97.3 43.7 97.3 45.5C97.3 47.3 98.8 47.8 100.6 47.8H114.7V53.5H99.2Z" fill="white"/>
  <path d="M153.8 36.8H166.1L173.4 52.2L180.7 36.8H193V41.9H184.9V70H178.6V41.9H168.3V70H162.1V41.9H153.8V36.8Z" fill="#1C1F24"/>
  <path d="M205.6 70V42.1H195.6V36.8H221.8V42.1H211.8V70H205.6Z" fill="#1C1F24"/>
  <path d="M225.6 36.8H250.9V42.1H231.8V49.7H249.1V54.9H231.8V64.7H251.5V70H225.6V36.8Z" fill="#1C1F24"/>
  <path d="M258.7 36.8H265V64.6H282V70H258.7V36.8Z" fill="#1C1F24"/>
</svg>
