<svg width="320" height="88" viewBox="0 0 320 88" fill="none" xmlns="http://www.w3.org/2000/svg">
  <rect width="320" height="88" rx="18" fill="white"/>
  <path d="M67.8 71.8C51.5 71.8 39.2 60.1 39.2 44C39.2 27.9 51.5 16.2 67.8 16.2C84.1 16.2 96.4 27.9 96.4 44C96.4 60.1 84.1 71.8 67.8 71.8Z" fill="#101214"/>
  <path d="M60.7 53.6V33.1H49.4V26.8H78.4V33.1H67.1V53.6H60.7Z" fill="white"/>
  <path d="M85.3 53.6L76.9 40.1L84.7 26.8H92.2L84.2 40.1L92.8 53.6H85.3Z" fill="white"/>
  <path d="M123 36.8H160.9V43.5H147.6V76H136.3V43.5H123V36.8Z" fill="#101214"/>
  <path d="M163.8 56.4C163.8 44.9 172 36 184.4 36C196.9 36 205 44.9 205 56.4C205 67.9 196.9 76.8 184.4 76.8C172 76.8 163.8 67.9 163.8 56.4ZM193.2 56.4C193.2 50.6 189.5 46.1 184.4 46.1C179.3 46.1 175.6 50.6 175.6 56.4C175.6 62.2 179.3 66.7 184.4 66.7C189.5 66.7 193.2 62.2 193.2 56.4Z" fill="#101214"/>
  <path d="M207.7 64.2C207.7 57.3 212.4 52.8 219.1 51.6C213.7 49.8 210.8 45.8 210.8 40.5C210.8 32.8 217.7 27 227.6 27C237.4 27 244.4 32.8 244.4 40.5C244.4 45.8 241.5 49.8 236.1 51.6C242.8 52.8 247.5 57.3 247.5 64.2C247.5 72.1 240.3 77 227.6 77C214.8 77 207.7 72.1 207.7 64.2ZM236 63C236 59.4 232.9 57.1 227.6 57.1C222.2 57.1 219.1 59.4 219.1 63C219.1 66.7 222.2 68.9 227.6 68.9C232.9 68.9 236 66.7 236 63ZM233.4 42.2C233.4 39.1 231.1 37.1 227.6 37.1C224 37.1 221.8 39.1 221.8 42.2C221.8 45.1 224 47.2 227.6 47.2C231.1 47.2 233.4 45.1 233.4 42.2Z" fill="#101214"/>
  <path d="M253.3 36.8H264.8V76H253.3V36.8Z" fill="#101214"/>
</svg>
